# xmcd CD database file
#
# Track frame offsets:
#	150
#	17076
#	31285
#	62170
#
# Disc length: 1226 seconds
#
# Revision: 0
# Processed by: cddbd v1.5.2PL0 Copyright (c) Steve Scherf et al.
# Submitted via: CDex 1.51
#
DISCID=2b04c804
DTITLE=Emmerhoff and The Melancholy Babies - Four Shades Of A Decade
DYEAR=2006
DGENRE=Country
TTITLE0=Some Velvet Morning
TTITLE1=Chameleon
TTITLE2=Redemption Stomp
TTITLE3=David Watts
EXTD=YEAR: 2006
EXTT0=
EXTT1=
EXTT2=
EXTT3=
PLAYORDER=
